<svg version="1.1" id="Layer_1" xmlns="http://www.w3.org/2000/svg" xmlns:xlink="http://www.w3.org/1999/xlink" x="0px" y="0px"
	 width="100%" viewBox="0 0 640 640" enable-background="new 0 0 640 640" xml:space="preserve">
<path fill="#0149A5" opacity="1.000000" stroke="none" 
	d="
M331.000000,1.000000 
	C335.024536,1.000000 339.049103,1.000000 343.727234,1.367658 
	C363.245697,4.822720 382.388184,6.749843 400.930298,11.186256 
	C519.251770,39.495995 614.533508,139.948700 637.112000,259.331329 
	C638.232117,265.254120 639.696106,271.111938 641.000000,277.000000 
	C641.000000,306.354218 641.000000,335.708466 640.625977,365.653198 
	C639.575439,369.658813 638.834290,373.062531 638.231812,376.490631 
	C613.535706,516.998169 496.088226,625.697266 354.391846,639.234192 
	C351.564117,639.504395 348.795959,640.397461 346.000000,641.000000 
	C329.645782,641.000000 313.291534,641.000000 296.301697,640.623657 
	C278.931488,637.519897 261.953491,635.815735 245.501099,631.902039 
	C122.386482,602.615112 29.063946,505.035004 4.651782,380.743378 
	C3.551088,375.139374 2.222465,369.580109 1.000003,364.000000 
	C1.000000,335.645782 1.000000,307.291534 1.359166,278.301666 
	C5.751013,252.119019 11.987860,227.181351 21.580807,203.092606 
	C65.663567,92.396919 169.508728,14.325440 288.164795,2.741986 
	C290.477844,2.516181 292.723114,1.596139 295.000000,0.999999 
	C298.030609,1.000000 301.061188,1.000000 304.779877,1.306118 
	C307.267395,1.698932 309.066803,1.785629 311.341522,1.911787 
	C318.211212,1.634167 324.605591,1.317083 331.000000,1.000000 
M272.703278,244.675537 
	C272.703278,244.675537 272.571503,244.662109 273.109100,244.533936 
	C273.362701,244.277405 273.616302,244.020874 273.869202,243.843491 
	C273.869202,243.843491 273.793060,243.821808 274.423950,243.773956 
	C274.817230,243.335953 275.210510,242.897949 275.626495,242.560272 
	C275.626495,242.560272 275.525024,242.543411 276.079590,242.471115 
	C276.341858,242.219101 276.604095,241.967072 276.858002,241.856842 
	C276.858002,241.856842 276.717682,241.834717 277.222137,241.684647 
	C277.483673,241.457199 277.745239,241.229736 278.000763,241.000610 
	C278.000763,241.000610 277.999512,241.005936 278.585388,240.914612 
	C279.036011,240.560272 279.486603,240.205933 279.927643,239.925415 
	C279.927643,239.925415 279.859039,239.896469 280.481659,239.848511 
	C280.956238,239.480072 281.430847,239.111649 281.885773,238.857056 
	C281.885773,238.857056 281.774719,238.825150 282.479889,238.830750 
	C283.616425,238.124817 284.752991,237.418884 285.868256,236.827972 
	C285.868256,236.827972 285.756866,236.792282 286.388092,236.801544 
	C286.887604,236.467468 287.387146,236.133392 287.897400,235.892456 
	C287.897400,235.892456 287.823181,235.835159 288.584351,235.916901 
	C290.027954,235.223038 291.471527,234.529175 292.908997,233.915161 
	C292.908997,233.915161 292.842865,233.869965 293.605927,233.939606 
	C294.645996,233.445816 295.686066,232.952026 296.745911,232.563126 
	C296.745911,232.563126 296.640045,232.549469 297.495087,232.771591 
	C306.502563,231.846146 315.495880,230.405991 324.521973,230.158371 
	C331.724884,229.960770 338.967651,231.216309 346.113831,231.852524 
	C346.113831,231.852524 346.100555,231.770599 346.574280,232.321106 
	C347.756805,232.543030 348.939362,232.764954 350.570526,232.991714 
	C350.570526,232.991714 351.005066,233.103424 351.518188,233.470001 
	C352.131165,233.481323 352.744141,233.492630 353.240997,233.606705 
	C353.240997,233.606705 353.294800,233.461273 353.701324,234.144562 
	C354.711060,234.354706 355.720764,234.564850 356.878113,234.718292 
	C356.878113,234.718292 356.959015,234.854187 357.344299,235.491089 
	C358.948608,235.954483 360.552917,236.417877 362.075592,236.916702 
	C362.075592,236.916702 362.047028,236.832428 362.473114,237.317276 
	C363.074921,237.491364 363.676697,237.665451 364.977081,237.904938 
	C375.614288,242.743881 384.667572,249.683212 392.184448,258.604950 
	C395.875214,262.985504 398.579956,269.341766 403.245209,271.445007 
	C408.240814,273.697174 415.017303,272.014679 421.016571,272.021606 
	C431.617584,272.033875 442.218597,272.025055 452.903229,272.025055 
	C442.986908,220.544510 379.121063,175.090744 312.639374,180.047775 
	C243.057190,185.236008 187.933594,241.815628 184.410995,312.763489 
	C180.995071,381.562988 231.222916,443.038940 300.273132,454.934601 
	C360.296631,465.275146 428.570923,436.201172 456.553253,364.021423 
	C441.095490,364.021423 425.794189,364.311462 410.514069,363.869324 
	C404.913452,363.707245 401.640320,365.389404 398.294128,369.934998 
	C363.799500,416.794678 299.898224,421.425201 259.905212,379.774353 
	C221.798477,340.087952 226.339478,282.991638 270.383545,246.822952 
	C270.745880,246.355942 271.108185,245.888947 271.616241,245.943314 
	C271.576263,245.767715 271.536285,245.592117 272.030212,245.352890 
	C272.248962,245.083298 272.467712,244.813721 272.703278,244.675537 
M186.201141,220.022034 
	C187.110886,218.834351 188.004501,217.633911 188.932663,216.460800 
	C220.291840,176.826706 260.809448,153.315033 311.396149,149.410049 
	C358.209503,145.796387 398.906433,161.756531 433.746460,192.600845 
	C492.187469,244.339478 507.322418,325.674316 470.830902,391.898651 
	C452.917450,424.407837 428.853424,451.116974 394.588593,467.140564 
	C362.420563,482.183624 328.627075,485.093964 294.001099,478.885864 
	C252.259277,471.401947 216.937759,452.577606 191.628326,417.707245 
	C187.156281,411.545837 182.770599,409.188782 175.425537,409.521576 
	C163.356506,410.068451 151.244644,409.669769 138.331268,409.669769 
	C149.932297,440.718750 172.755722,461.983765 197.671768,481.474152 
	C195.342361,487.052551 193.129074,492.258240 190.990829,497.494568 
	C187.329529,506.460663 189.838669,513.098694 198.541428,517.185120 
	C215.866501,525.320190 233.212830,533.410339 250.576981,541.461731 
	C259.002869,545.368591 265.566711,542.853088 269.257080,534.381348 
	C271.631104,528.931458 273.913391,523.441711 276.268707,517.894714 
	C303.147125,523.694153 329.784088,524.931030 356.609344,521.066467 
	C360.851807,520.455261 366.164978,518.126160 369.071930,519.837646 
	C372.307373,521.742432 373.367920,527.354553 375.355988,531.362305 
	C379.650360,540.019592 386.331512,542.576050 395.177399,538.775146 
	C412.756775,531.221680 430.311127,523.609985 447.864349,515.995789 
	C456.439423,512.276062 458.888702,505.845673 454.969879,497.350067 
	C452.832581,492.716644 450.598358,488.127899 448.331024,483.357391 
	C467.202881,469.660858 482.892914,453.476318 495.894714,435.166534 
	C496.636963,435.221313 496.811493,435.194275 496.953064,435.250397 
	C501.746948,437.151764 506.524506,439.094879 511.331757,440.961670 
	C519.668091,444.198883 526.523560,441.485321 530.221130,433.293427 
	C538.161682,415.701111 546.030640,398.076172 553.853333,380.431061 
	C557.633545,371.904480 554.994446,365.456299 546.418274,361.901733 
	C541.069458,359.684845 535.693909,357.532349 530.162170,355.282562 
	C533.997986,333.834320 535.025696,312.593781 531.988831,291.330658 
	C531.256836,286.205750 532.733704,283.775360 537.420654,282.208191 
	C541.344727,280.896149 545.069031,278.949554 548.811096,277.137878 
	C556.337402,273.494171 559.070984,266.632416 555.934204,258.823883 
	C548.616943,240.608414 541.237427,222.417328 533.756042,204.268768 
	C530.486328,196.337189 523.684326,193.761810 515.785278,197.211731 
	C510.956909,199.320526 506.173340,201.531876 501.149841,203.796280 
	C487.178314,181.543106 469.762299,162.948441 448.721008,147.886581 
	C450.702545,143.090256 452.521088,138.809875 454.244263,134.491440 
	C457.477264,126.389282 454.912720,119.572571 447.049835,115.859619 
	C429.595398,107.617416 412.109863,99.440247 394.597198,91.322433 
	C385.722504,87.208656 379.222321,89.862320 375.344147,98.996765 
	C373.471680,103.407097 371.652130,107.839890 369.687866,112.552238 
	C338.705292,105.853210 308.007080,105.488396 277.636078,112.683693 
	C277.116119,112.025398 276.850922,111.795433 276.717468,111.504944 
	C274.355713,106.363533 272.058502,101.191917 269.649841,96.072716 
	C265.674713,87.624306 258.904114,84.938362 250.321884,88.593941 
	C232.564087,96.157829 214.839783,103.801346 197.140930,111.502258 
	C188.747635,115.154243 186.172562,121.857140 189.825409,130.246674 
	C192.529495,136.457123 195.371521,142.607498 198.225998,148.948807 
	C172.698883,167.933060 153.166458,191.530563 138.097076,220.404617 
	C143.638397,220.404617 148.243256,220.404617 152.146454,220.731384 
	C148.992462,220.907288 145.838470,221.083191 142.684479,221.259079 
	C156.100250,221.982635 169.487427,222.012665 182.873795,221.922195 
	C183.878983,221.915390 184.878372,221.048538 186.201141,220.022034 
z"/>
<path fill="#FEFEFF" opacity="1.000000" stroke="none" 
	d="
M294.531342,0.999999 
	C292.723114,1.596139 290.477844,2.516181 288.164795,2.741986 
	C169.508728,14.325440 65.663567,92.396919 21.580807,203.092606 
	C11.987860,227.181351 5.751013,252.119019 1.359166,277.833008 
	C1.000000,185.737442 1.000000,93.474869 1.000000,1.000000 
	C98.687462,1.000000 196.375076,1.000000 294.531342,0.999999 
z"/>
<path fill="#FEFEFF" opacity="1.000000" stroke="none" 
	d="
M1.000003,364.468658 
	C2.222465,369.580109 3.551088,375.139374 4.651782,380.743378 
	C29.063946,505.035004 122.386482,602.615112 245.501099,631.902039 
	C261.953491,635.815735 278.931488,637.519897 295.833069,640.623657 
	C197.741898,641.000000 99.483803,641.000000 1.000000,641.000000 
	C1.000000,548.979248 1.000000,456.958282 1.000003,364.468658 
z"/>
<path fill="#FEFEFF" opacity="1.000000" stroke="none" 
	d="
M641.000000,276.531342 
	C639.696106,271.111938 638.232117,265.254120 637.112000,259.331329 
	C614.533508,139.948700 519.251770,39.495995 400.930298,11.186256 
	C382.388184,6.749843 363.245697,4.822720 344.190399,1.367658 
	C442.924377,1.000000 541.848755,1.000000 641.000000,1.000000 
	C641.000000,92.687439 641.000000,184.375061 641.000000,276.531342 
z"/>
<path fill="#FEFEFF" opacity="1.000000" stroke="none" 
	d="
M346.468658,641.000000 
	C348.795959,640.397461 351.564117,639.504395 354.391846,639.234192 
	C496.088226,625.697266 613.535706,516.998169 638.231812,376.490631 
	C638.834290,373.062531 639.575439,369.658813 640.625977,366.121857 
	C641.000000,457.596283 641.000000,549.192566 641.000000,641.000000 
	C542.979187,641.000000 444.958252,641.000000 346.468658,641.000000 
z"/>
<path fill="#1B5EB5" opacity="1.000000" stroke="none" 
	d="
M330.531616,1.000000 
	C324.605591,1.317083 318.211212,1.634167 311.382507,1.695212 
	C310.948181,1.439174 311.000000,1.000000 311.000000,1.000000 
	C317.354401,1.000000 323.708801,1.000000 330.531616,1.000000 
z"/>
<path fill="#4583D3" opacity="1.000000" stroke="none" 
	d="
M310.571533,1.000000 
	C311.000000,1.000000 310.948181,1.439174 310.907227,1.655749 
	C309.066803,1.785629 307.267395,1.698932 305.233978,1.306118 
	C306.714355,1.000000 308.428711,1.000000 310.571533,1.000000 
z"/>
<path fill="#FDFEFE" opacity="1.000000" stroke="none" 
	d="
M152.848099,220.404633 
	C148.243256,220.404617 143.638397,220.404617 138.097076,220.404617 
	C153.166458,191.530563 172.698883,167.933060 198.225998,148.948807 
	C195.371521,142.607498 192.529495,136.457123 189.825409,130.246674 
	C186.172562,121.857140 188.747635,115.154243 197.140930,111.502258 
	C214.839783,103.801346 232.564087,96.157829 250.321884,88.593941 
	C258.904114,84.938362 265.674713,87.624306 269.649841,96.072716 
	C272.058502,101.191917 274.355713,106.363533 276.717468,111.504944 
	C276.850922,111.795433 277.116119,112.025398 277.636078,112.683693 
	C308.007080,105.488396 338.705292,105.853210 369.687866,112.552238 
	C371.652130,107.839890 373.471680,103.407097 375.344147,98.996765 
	C379.222321,89.862320 385.722504,87.208656 394.597198,91.322433 
	C412.109863,99.440247 429.595398,107.617416 447.049835,115.859619 
	C454.912720,119.572571 457.477264,126.389282 454.244263,134.491440 
	C452.521088,138.809875 450.702545,143.090256 448.721008,147.886581 
	C469.762299,162.948441 487.178314,181.543106 501.149841,203.796280 
	C506.173340,201.531876 510.956909,199.320526 515.785278,197.211731 
	C523.684326,193.761810 530.486328,196.337189 533.756042,204.268768 
	C541.237427,222.417328 548.616943,240.608414 555.934204,258.823883 
	C559.070984,266.632416 556.337402,273.494171 548.811096,277.137878 
	C545.069031,278.949554 541.344727,280.896149 537.420654,282.208191 
	C532.733704,283.775360 531.256836,286.205750 531.988831,291.330658 
	C535.025696,312.593781 533.997986,333.834320 530.162170,355.282562 
	C535.693909,357.532349 541.069458,359.684845 546.418274,361.901733 
	C554.994446,365.456299 557.633545,371.904480 553.853333,380.431061 
	C546.030640,398.076172 538.161682,415.701111 530.221130,433.293427 
	C526.523560,441.485321 519.668091,444.198883 511.331757,440.961670 
	C506.524506,439.094879 501.746948,437.151764 496.953064,435.250397 
	C496.811493,435.194275 496.636963,435.221313 495.894714,435.166534 
	C482.892914,453.476318 467.202881,469.660858 448.331024,483.357391 
	C450.598358,488.127899 452.832581,492.716644 454.969879,497.350067 
	C458.888702,505.845673 456.439423,512.276062 447.864349,515.995789 
	C430.311127,523.609985 412.756775,531.221680 395.177399,538.775146 
	C386.331512,542.576050 379.650360,540.019592 375.355988,531.362305 
	C373.367920,527.354553 372.307373,521.742432 369.071930,519.837646 
	C366.164978,518.126160 360.851807,520.455261 356.609344,521.066467 
	C329.784088,524.931030 303.147125,523.694153 276.268707,517.894714 
	C273.913391,523.441711 271.631104,528.931458 269.257080,534.381348 
	C265.566711,542.853088 259.002869,545.368591 250.576981,541.461731 
	C233.212830,533.410339 215.866501,525.320190 198.541428,517.185120 
	C189.838669,513.098694 187.329529,506.460663 190.990829,497.494568 
	C193.129074,492.258240 195.342361,487.052551 197.671768,481.474152 
	C172.755722,461.983765 149.932297,440.718750 138.331268,409.669769 
	C151.244644,409.669769 163.356506,410.068451 175.425537,409.521576 
	C182.770599,409.188782 187.156281,411.545837 191.628326,417.707245 
	C216.937759,452.577606 252.259277,471.401947 294.001099,478.885864 
	C328.627075,485.093964 362.420563,482.183624 394.588593,467.140564 
	C428.853424,451.116974 452.917450,424.407837 470.830902,391.898651 
	C507.322418,325.674316 492.187469,244.339478 433.746460,192.600845 
	C398.906433,161.756531 358.209503,145.796387 311.396149,149.410049 
	C260.809448,153.315033 220.291840,176.826706 188.932663,216.460800 
	C188.004501,217.633911 187.110886,218.834351 185.590973,220.300934 
	C174.269897,220.521439 163.558990,220.463028 152.848099,220.404633 
z"/>
<path fill="#FCFEFE" opacity="1.000000" stroke="none" 
	d="
M269.751892,246.922714 
	C226.339478,282.991638 221.798477,340.087952 259.905212,379.774353 
	C299.898224,421.425201 363.799500,416.794678 398.294128,369.934998 
	C401.640320,365.389404 404.913452,363.707245 410.514069,363.869324 
	C425.794189,364.311462 441.095490,364.021423 456.553253,364.021423 
	C428.570923,436.201172 360.296631,465.275146 300.273132,454.934601 
	C231.222916,443.038940 180.995071,381.562988 184.410995,312.763489 
	C187.933594,241.815628 243.057190,185.236008 312.639374,180.047775 
	C379.121063,175.090744 442.986908,220.544510 452.903229,272.025055 
	C442.218597,272.025055 431.617584,272.033875 421.016571,272.021606 
	C415.017303,272.014679 408.240814,273.697174 403.245209,271.445007 
	C398.579956,269.341766 395.875214,262.985504 392.184448,258.604950 
	C384.667572,249.683212 375.614288,242.743881 364.431763,237.620331 
	C363.273285,237.167969 362.660156,237.000198 362.047028,236.832428 
	C362.047028,236.832428 362.075592,236.916702 361.885559,236.630280 
	C360.116669,235.847290 358.537842,235.350739 356.959015,234.854187 
	C356.959015,234.854187 356.878113,234.718292 356.533752,234.483337 
	C355.224518,233.986023 354.259644,233.723648 353.294800,233.461273 
	C353.294800,233.461273 353.240997,233.606705 353.043091,233.369980 
	C352.231781,233.123306 351.618439,233.113358 351.005066,233.103424 
	C351.005066,233.103424 350.570526,232.991714 350.136108,232.682281 
	C348.501312,232.172119 347.300934,231.971359 346.100555,231.770599 
	C346.100555,231.770599 346.113831,231.852524 345.881348,231.557495 
	C341.895264,230.749237 338.125946,230.330338 334.391022,229.705643 
	C321.566315,227.560593 308.989624,228.494049 296.640045,232.549469 
	C296.640045,232.549469 296.745911,232.563126 296.381500,232.538071 
	C294.959015,232.965332 293.900940,233.417633 292.842865,233.869965 
	C292.842865,233.869965 292.908997,233.915161 292.560364,233.882416 
	C290.748901,234.511490 289.286041,235.173325 287.823181,235.835175 
	C287.823181,235.835159 287.897400,235.892456 287.585022,235.864487 
	C286.767395,236.155106 286.262146,236.473694 285.756866,236.792282 
	C285.756866,236.792282 285.868256,236.827972 285.539673,236.809814 
	C284.065643,237.469482 282.920166,238.147324 281.774719,238.825150 
	C281.774719,238.825150 281.885773,238.857056 281.590546,238.844666 
	C280.816559,239.186996 280.337799,239.541733 279.859039,239.896469 
	C279.859039,239.896469 279.927643,239.925415 279.638733,239.922821 
	C278.899689,240.282135 278.449615,240.644043 277.999512,241.005936 
	C277.999512,241.005936 278.000763,241.000610 277.726074,241.024048 
	C277.206787,241.309891 276.962219,241.572296 276.717682,241.834717 
	C276.717682,241.834717 276.858002,241.856842 276.590424,241.835236 
	C276.056915,242.056885 275.790985,242.300156 275.525024,242.543427 
	C275.525024,242.543411 275.626495,242.560272 275.337585,242.612457 
	C274.630157,243.050354 274.211609,243.436081 273.793060,243.821808 
	C273.793060,243.821808 273.869202,243.843491 273.595886,243.859833 
	C273.072205,244.138138 272.821869,244.400116 272.571503,244.662109 
	C272.571503,244.662109 272.703278,244.675537 272.451599,244.686920 
	C271.965393,244.937698 271.730835,245.177109 271.496307,245.416504 
	C271.536285,245.592117 271.576263,245.767715 271.278870,245.813232 
	C270.544983,246.096344 270.148438,246.509537 269.751892,246.922714 
z"/>
<path fill="#043F91" opacity="1.000000" stroke="none" 
	d="
M152.497284,220.568008 
	C163.558990,220.463028 174.269897,220.521439 185.430634,220.580673 
	C184.878372,221.048538 183.878983,221.915390 182.873795,221.922195 
	C169.487427,222.012665 156.100250,221.982635 142.684479,221.259079 
	C145.838470,221.083191 148.992462,220.907288 152.497284,220.568008 
z"/>
<path fill="#144A8F" opacity="1.000000" stroke="none" 
	d="
M297.067566,232.660522 
	C308.989624,228.494049 321.566315,227.560593 334.391022,229.705643 
	C338.125946,230.330338 341.895264,230.749237 345.920776,231.544647 
	C338.967651,231.216309 331.724884,229.960770 324.521973,230.158371 
	C315.495880,230.405991 306.502563,231.846146 297.067566,232.660522 
z"/>
<path fill="#144A8F" opacity="1.000000" stroke="none" 
	d="
M288.203766,235.876038 
	C289.286041,235.173325 290.748901,234.511490 292.563446,233.842468 
	C291.471527,234.529175 290.027954,235.223038 288.203766,235.876038 
z"/>
<path fill="#144A8F" opacity="1.000000" stroke="none" 
	d="
M357.151672,235.172638 
	C358.537842,235.350739 360.116669,235.847290 361.926361,236.612549 
	C360.552917,236.417877 358.948608,235.954483 357.151672,235.172638 
z"/>
<path fill="#144A8F" opacity="1.000000" stroke="none" 
	d="
M282.127319,238.827942 
	C282.920166,238.147324 284.065643,237.469482 285.550323,236.752289 
	C284.752991,237.418884 283.616425,238.124817 282.127319,238.827942 
z"/>
<path fill="#144A8F" opacity="1.000000" stroke="none" 
	d="
M346.337402,232.045853 
	C347.300934,231.971359 348.501312,232.172119 349.911804,232.679871 
	C348.939362,232.764954 347.756805,232.543030 346.337402,232.045853 
z"/>
<path fill="#144A8F" opacity="1.000000" stroke="none" 
	d="
M293.224396,233.904785 
	C293.900940,233.417633 294.959015,232.965332 296.371613,232.485626 
	C295.686066,232.952026 294.645996,233.445816 293.224396,233.904785 
z"/>
<path fill="#144A8F" opacity="1.000000" stroke="none" 
	d="
M353.498047,233.802917 
	C354.259644,233.723648 355.224518,233.986023 356.459930,234.511688 
	C355.720764,234.564850 354.711060,234.354706 353.498047,233.802917 
z"/>
<path fill="#144A8F" opacity="1.000000" stroke="none" 
	d="
M286.072479,236.796906 
	C286.262146,236.473694 286.767395,236.155106 287.579651,235.817917 
	C287.387146,236.133392 286.887604,236.467468 286.072479,236.796906 
z"/>
<path fill="#144A8F" opacity="1.000000" stroke="none" 
	d="
M362.260071,237.074860 
	C362.660156,237.000198 363.273285,237.167969 364.082458,237.587646 
	C363.676697,237.665451 363.074921,237.491364 362.260071,237.074860 
z"/>
<path fill="#144A8F" opacity="1.000000" stroke="none" 
	d="
M280.170349,239.872498 
	C280.337799,239.541733 280.816559,239.186996 281.600372,238.787750 
	C281.430847,239.111649 280.956238,239.480072 280.170349,239.872498 
z"/>
<path fill="#144A8F" opacity="1.000000" stroke="none" 
	d="
M278.292450,240.960266 
	C278.449615,240.644043 278.899689,240.282135 279.643494,239.885925 
	C279.486603,240.205933 279.036011,240.560272 278.292450,240.960266 
z"/>
<path fill="#144A8F" opacity="1.000000" stroke="none" 
	d="
M274.108521,243.797882 
	C274.211609,243.436081 274.630157,243.050354 275.326233,242.562286 
	C275.210510,242.897949 274.817230,243.335953 274.108521,243.797882 
z"/>
<path fill="#144A8F" opacity="1.000000" stroke="none" 
	d="
M270.067719,246.872833 
	C270.148438,246.509537 270.544983,246.096344 271.205994,245.552551 
	C271.108185,245.888947 270.745880,246.355942 270.067719,246.872833 
z"/>
<path fill="#144A8F" opacity="1.000000" stroke="none" 
	d="
M351.261627,233.286713 
	C351.618439,233.113358 352.231781,233.123306 353.101135,233.318604 
	C352.744141,233.492630 352.131165,233.481323 351.261627,233.286713 
z"/>
<path fill="#144A8F" opacity="1.000000" stroke="none" 
	d="
M276.969910,241.759674 
	C276.962219,241.572296 277.206787,241.309891 277.729065,241.024872 
	C277.745239,241.229736 277.483673,241.457199 276.969910,241.759674 
z"/>
<path fill="#144A8F" opacity="1.000000" stroke="none" 
	d="
M275.802307,242.507263 
	C275.790985,242.300156 276.056915,242.056885 276.594604,241.764328 
	C276.604095,241.967072 276.341858,242.219101 275.802307,242.507263 
z"/>
<path fill="#144A8F" opacity="1.000000" stroke="none" 
	d="
M272.840302,244.598022 
	C272.821869,244.400116 273.072205,244.138138 273.596252,243.820251 
	C273.616302,244.020874 273.362701,244.277405 272.840302,244.598022 
z"/>
<path fill="#144A8F" opacity="1.000000" stroke="none" 
	d="
M271.763245,245.384705 
	C271.730835,245.177109 271.965393,244.937698 272.443176,244.621216 
	C272.467712,244.813721 272.248962,245.083298 271.763245,245.384705 
z"/>
</svg>